PathFileType	4	(X/Y/Z)	/Users/itak/Documents/Research/Walk-IL/dataset/trc/00117_00007.trc
DataRate	CameraRate	NumFrames	NumMarkers	Units	OrigDataRate	OrigDataStartFrame	OrigNumFrames
100.000000	100.000000	4	53	mm	100.000000	65	526
Frame#	Time	RPSI			LPSI			L3			STRN			T10			C7			CLAV			RBAK			LBAK			LSHO			LUPA			LAEL			LAOL			LWTS			LWPS			LFRA			LIFD			LHPS			LHTS			RSHO			RUPA			RAEL			RAOL			RWTS			RWPS			RFRA			RIFD			RHTS			RHPS			RBHD			LFHD			RFHD			LBHD			LHIP			RHIP			RASI			LASI			LKNE			LTHI			LANK			LTIP			LTOE			LMT1			LMT5			LHEE			RKNE			RTHI			RANK			RTIP			RTOE			RMT1			RMT5			RHEE			
		X1	Y1	Z1	X2	Y2	Z2	X3	Y3	Z3	X4	Y4	Z4	X5	Y5	Z5	X6	Y6	Z6	X7	Y7	Z7	X8	Y8	Z8	X9	Y9	Z9	X10	Y10	Z10	X11	Y11	Z11	X12	Y12	Z12	X13	Y13	Z13	X14	Y14	Z14	X15	Y15	Z15	X16	Y16	Z16	X17	Y17	Z17	X18	Y18	Z18	X19	Y19	Z19	X20	Y20	Z20	X21	Y21	Z21	X22	Y22	Z22	X23	Y23	Z23	X24	Y24	Z24	X25	Y25	Z25	X26	Y26	Z26	X27	Y27	Z27	X28	Y28	Z28	X29	Y29	Z29	X30	Y30	Z30	X31	Y31	Z31	X32	Y32	Z32	X33	Y33	Z33	X34	Y34	Z34	X35	Y35	Z35	X36	Y36	Z36	X37	Y37	Z37	X38	Y38	Z38	X39	Y39	Z39	X40	Y40	Z40	X41	Y41	Z41	X42	Y42	Z42	X43	Y43	Z43	X44	Y44	Z44	X45	Y45	Z45	X46	Y46	Z46	X47	Y47	Z47	X48	Y48	Z48	X49	Y49	Z49	X50	Y50	Z50	X51	Y51	Z51	X52	Y52	Z52	X53	Y53	Z53	

66	0.65	468.1455078125	1127.0234375	-260.5452270507812	476.5180969238281	1127.264038085938	-394.4132385253906	467.0841674804688	1157.9287109375	-329.9764404296875	677.4697265625	1362.96484375	-321.5061645507812	423.7812194824219	1305.999145507812	-335.9854431152344	452.1061401367188	1598.952758789062	-351.7826843261719	637.9411010742188	1496.926147460938	-329.0136108398438	399.5335083007812	1414.1552734375	-266.6748352050781	452.038818359375	1577.17822265625	-452.9270629882812	544.1237182617188	1565.65869140625	-515.3110961914062	529.0861206054688	1431.731567382812	-583.9004516601562	546.2681884765625	1212.60693359375	-599.4874877929688	480.2383728027344	1199.444946289062	-542.2241821289062	656.3135986328125	961.1160888671875	-553.2886962890625	574.4927368164062	930.34423828125	-576.7359619140625	565.9024047851562	1097.006958007812	-600.970458984375	674.851318359375	768.0902709960938	-523.5574340820312	606.1559448242188	855.8676147460938	-576.1096801757812	674.5603637695312	871.9359741210938	-562.291015625	495	1582.826416015625	-165.9981536865234	475.5144653320312	1509.209228515625	-103.2160568237305	470.1535339355469	1214.532592773438	-82.16545867919922	471.7224731445312	1213.231079101562	-178.4406890869141	620.3778686523438	975.8775634765625	-87.14897918701172	545.4691772460938	957.0728149414062	-59.86639022827148	494.9662475585938	1141.903442382812	-65.21061706542969	650.955810546875	782.0499877929688	-103.1504058837891	652.1392211914062	868.0919799804688	-80.20571136474609	584.903564453125	858.71923828125	-53.48487854003906	483.8777160644531	1771.071533203125	-266.6070556640625	643.6463012695312	1845.01318359375	-398.4830017089844	641.6836547851562	1850.71142578125	-268.839111328125	475.6355590820312	1769.126586914062	-401.9545288085938	572.8561401367188	1037.038452148438	-495.6314392089844	587.92626953125	1031.742553710938	-135.5869445800781	670.7391967773438	1105.0849609375	-184.6178741455078	680.3147583007812	1105.149169921875	-452.1563720703125	587.415771484375	536.5013427734375	-469.7442932128906	570.2327270507812	681.2559204101562	-496.0206298828125	458.0274047851562	36.44625473022461	-468.2454223632812	477.0542297363281	292.1758117675781	-498.9423828125	691.5316772460938	35.35113906860352	-414.1504211425781	609.7323608398438	41.15207290649414	-380.0404357910156	582.9146728515625	33.61856460571289	-494.6219787597656	390.0548706054688	38.5013427734375	-405.9034423828125	566.554443359375	539.2421264648438	-171.5404815673828	604.44482421875	822.3080444335938	-145.5646820068359	464.0651550292969	28.07390975952148	-197.0149688720703	538.3740844726562	407.4117126464844	-161.2978210449219	695.7922973632812	43.18061447143555	-253.9455108642578	633.078125	33.25646209716797	-294.7693786621094	598.505615234375	38.26636505126953	-178.4154357910156	405.4273681640625	32.65478897094727	-245.3622894287109	
67	0.66	468.2204895019531	1127.0107421875	-260.5663757324219	476.5906982421875	1127.24560546875	-394.4200744628906	467.1870727539062	1157.916137695312	-330.00732421875	677.5474853515625	1362.948120117188	-321.5462341308594	423.8749084472656	1305.971069335938	-336.0057067871094	452.2009887695312	1598.945068359375	-351.8612670898438	638.0208129882812	1496.919677734375	-329.0326538085938	399.6362915039062	1414.139770507812	-266.6983032226562	452.1376037597656	1577.169555664062	-452.9528503417969	544.235107421875	1565.642578125	-515.3333740234375	529.1964111328125	1431.716918945312	-583.93310546875	546.4511108398438	1212.558471679688	-599.4908447265625	480.4461059570312	1199.399169921875	-542.2354125976562	656.655517578125	961.1701049804688	-553.1441040039062	574.8877563476562	930.33642578125	-576.6449584960938	566.21484375	1096.9814453125	-600.9271240234375	675.4227294921875	768.187744140625	-523.4019165039062	606.667236328125	855.9151000976562	-575.9849243164062	675.0219116210938	872.0004272460938	-562.1568603515625	495.066162109375	1582.815673828125	-166.0310974121094	475.5768432617188	1509.193481445312	-103.248779296875	470.2068481445312	1214.52197265625	-82.19052124023438	471.7747802734375	1213.228271484375	-178.4630279541016	620.409423828125	975.8495483398438	-87.15709686279297	545.5049438476562	957.0529174804688	-59.87829971313477	495.0039367675781	1141.886962890625	-65.233154296875	650.9816284179688	782.0238037109375	-103.1854858398438	652.1817016601562	868.05908203125	-80.21502685546875	584.9508666992188	858.70263671875	-53.49026489257812	483.9859313964844	1771.080810546875	-266.6809387207031	643.7745971679688	1844.970703125	-398.5088806152344	641.8497314453125	1850.685791015625	-268.8658142089844	475.7339782714844	1769.118041992188	-401.9889526367188	572.8699340820312	1037.011962890625	-495.6678466796875	588.076416015625	1031.721801757812	-135.5993347167969	670.8775634765625	1105.069213867188	-184.6248626708984	680.4318237304688	1105.166259765625	-452.1867980957031	587.4716186523438	536.4788208007812	-469.7569580078125	570.3363037109375	681.2376708984375	-496.0423583984375	458.0270080566406	36.44748687744141	-468.2420959472656	477.1091613769531	292.1738891601562	-498.9398193359375	691.5331420898438	35.34711074829102	-414.1468505859375	609.7318725585938	41.14909362792969	-380.0377807617188	582.9150390625	33.61752700805664	-494.6207580566406	390.0529174804688	38.50983810424805	-405.9045715332031	566.7711791992188	539.2415771484375	-171.5630798339844	604.5611572265625	822.2940673828125	-145.5839996337891	464.0707702636719	28.08254814147949	-197.0187377929688	538.513427734375	407.3782653808594	-161.3435516357422	695.7879028320312	43.17361831665039	-253.9563446044922	633.0831298828125	33.24764251708984	-294.7720947265625	598.5093994140625	38.27022552490234	-178.4207000732422	405.4268188476562	32.64477920532227	-245.3770904541016	
68	0.67	468.2929382324219	1126.99609375	-260.5853271484375	476.6643371582031	1127.224365234375	-394.4259643554688	467.2862243652344	1157.905151367188	-330.0323791503906	677.618408203125	1362.929809570312	-321.5841674804688	423.953369140625	1305.937744140625	-336.0237426757812	452.2940063476562	1598.934936523438	-351.9340515136719	638.091064453125	1496.91064453125	-329.0459899902344	399.7365112304688	1414.115234375	-266.721923828125	452.2314453125	1577.15869140625	-452.9797058105469	544.33544921875	1565.62158203125	-515.3510131835938	529.2960815429688	1431.6953125	-583.9652709960938	546.63818359375	1212.5107421875	-599.4823608398438	480.6434020996094	1199.353393554688	-542.2420654296875	656.987060546875	961.2158203125	-552.99462890625	575.26708984375	930.3240966796875	-576.5482788085938	566.5175170898438	1096.951782226562	-600.8806762695312	675.9533081054688	768.2680053710938	-523.2413330078125	607.15234375	855.9744873046875	-575.849609375	675.4611206054688	872.05859375	-562.01708984375	495.1228942871094	1582.801147460938	-166.0608520507812	475.6307983398438	1509.175537109375	-103.2781753540039	470.2550354003906	1214.507934570312	-82.21327972412109	471.8201904296875	1213.225830078125	-178.4846343994141	620.4405517578125	975.8214111328125	-87.16175842285156	545.5407104492188	957.0330200195312	-59.88719177246094	495.0370178222656	1141.869750976562	-65.25397491455078	651.016357421875	782.0003662109375	-103.2109375	652.2259521484375	868.0291137695312	-80.22074127197266	584.999267578125	858.6873168945312	-53.49118423461914	484.0829467773438	1771.090698242188	-266.750732421875	643.9058837890625	1844.921264648438	-398.5333557128906	642.0088500976562	1850.656860351562	-268.8938293457031	475.8241271972656	1769.110595703125	-402.0201721191406	572.8569946289062	1036.982299804688	-495.7079162597656	588.23095703125	1031.70263671875	-135.6049652099609	671.0228881835938	1105.054077148438	-184.6344604492188	680.5423583984375	1105.1806640625	-452.2185363769531	587.5283203125	536.4550170898438	-469.7701110839844	570.4317626953125	681.2200927734375	-496.0637817382812	458.0261535644531	36.44804000854492	-468.239013671875	477.159912109375	292.1734924316406	-498.9378051757812	691.5342407226562	35.34362411499023	-414.1425476074219	609.7319946289062	41.14618301391602	-380.0352172851562	582.9165649414062	33.61800384521484	-494.6197204589844	390.0503845214844	38.52079391479492	-405.9063110351562	566.9932861328125	539.2396240234375	-171.5877532958984	604.6727294921875	822.286865234375	-145.6039886474609	464.0786743164062	28.09185791015625	-197.0219268798828	538.656494140625	407.3454284667969	-161.3925170898438	695.7841186523438	43.16486740112305	-253.9660491943359	633.0889892578125	33.23844909667969	-294.7751159667969	598.5147705078125	38.27414321899414	-178.4277496337891	405.4227294921875	32.63367462158203	-245.3927612304688	
69	0.68	468.3640441894531	1126.979248046875	-260.6009521484375	476.7413024902344	1127.201416015625	-394.4305419921875	467.383056640625	1157.89501953125	-330.05224609375	677.68505859375	1362.9111328125	-321.6197814941406	424.021728515625	1305.898315429688	-336.0382690429688	452.3823852539062	1598.921508789062	-351.9993591308594	638.1535034179688	1496.900390625	-329.0546264648438	399.8344116210938	1414.079711914062	-266.7453002929688	452.3200073242188	1577.145263671875	-453.007080078125	544.425537109375	1565.596435546875	-515.3653564453125	529.3883666992188	1431.666625976562	-583.9960327148438	546.83056640625	1212.463989257812	-599.4615478515625	480.8305358886719	1199.30712890625	-542.2446899414062	657.3156127929688	961.2576904296875	-552.8445434570312	575.63720703125	930.3094482421875	-576.44775390625	566.8037109375	1096.918701171875	-600.8327026367188	676.4536743164062	768.338134765625	-523.07080078125	607.6103515625	856.0396118164062	-575.7100830078125	675.8795776367188	872.1114501953125	-561.8685913085938	495.1718444824219	1582.782592773438	-166.0873107910156	475.6764831542969	1509.155639648438	-103.305290222168	470.2990417480469	1214.490234375	-82.23345184326172	471.8613586425781	1213.222900390625	-178.5057678222656	620.4724731445312	975.7930297851562	-87.16306304931641	545.5761108398438	957.0125122070312	-59.89249420166016	495.0670166015625	1141.8515625	-65.27252960205078	651.0587768554688	781.9776000976562	-103.2256088256836	652.271240234375	868.0017700195312	-80.22235870361328	585.0484619140625	858.6727905273438	-53.48768615722656	484.1699829101562	1771.101806640625	-266.8141174316406	644.0393676757812	1844.864379882812	-398.5567626953125	642.1583251953125	1850.624267578125	-268.9222717285156	475.9067687988281	1769.1044921875	-402.0481567382812	572.8164672851562	1036.947509765625	-495.7535705566406	588.3897094726562	1031.684814453125	-135.6044769287109	671.1749877929688	1105.040161132812	-184.6475830078125	680.64697265625	1105.191772460938	-452.2525024414062	587.5866088867188	536.431640625	-469.7831726074219	570.5208129882812	681.2044677734375	-496.0843200683594	458.0242919921875	36.44869995117188	-468.2362365722656	477.2075500488281	292.1736145019531	-498.9358520507812	691.5355224609375	35.34077453613281	-414.1378173828125	609.7333374023438	41.14361572265625	-380.0336303710938	582.9191284179688	33.61989212036133	-494.619384765625	390.0473327636719	38.53388977050781	-405.9078369140625	567.2152709960938	539.2342529296875	-171.6157989501953	604.779296875	822.28125	-145.6208648681641	464.0880432128906	28.10155487060547	-197.0252685546875	538.8019409179688	407.3145446777344	-161.4433746337891	695.7821044921875	43.15396881103516	-253.9756469726562	633.0953369140625	33.22911834716797	-294.7787170410156	598.521728515625	38.27822494506836	-178.4363098144531	405.4160766601562	32.62385559082031	-245.4082641601562	
